<?xml version="1.0" encoding="UTF-8"?>
<svg width="49px" height="45px" viewBox="0 0 49 45" version="1.1" xmlns="http://www.w3.org/2000/svg" xmlns:xlink="http://www.w3.org/1999/xlink">
    <title>Group 14</title>
    <g id="Page-1" stroke="none" stroke-width="1" fill="none" fill-rule="evenodd">
        <g id="Infos-et-effets" transform="translate(-829.000000, -531.000000)" fill="#DADB14">
            <g id="Group-6" transform="translate(786.000000, 532.000000)">
                <g id="Group-14" transform="translate(43.000000, -0.847767)">
                    <path d="M7.5,13.2477673 C8.755,11.9227673 9.381,10.3957673 9.381,8.67076733 C9.381,6.94476733 8.765,5.46276733 7.528,4.22776733 C6.294,2.99276733 4.838,2.37476733 3.167,2.37476733 L2.731,2.37476733 L2.731,15.2367673 L3.167,15.2367673 C4.803,15.2367673 6.247,14.5757673 7.5,13.2477673" id="Fill-2"></path>
                    <path d="M11.29,20.1705673 C9.035,17.8625673 6.329,16.7095673 3.167,16.7095673 L2.731,16.7095673 L2.731,40.2015673 L3.167,40.2015673 C6.294,40.2015673 8.991,39.0385673 11.261,36.7125673 C13.531,34.3885673 14.667,31.6265673 14.667,28.4285673 C14.667,25.2315673 13.542,22.4785673 11.29,20.1705673" id="Fill-3"></path>
                    <path d="M11.2607,36.7125673 C8.9907,39.0385673 6.2937,40.2015673 3.1667,40.2015673 L2.7317,40.2015673 L2.7317,16.7095673 L3.1667,16.7095673 C6.3287,16.7095673 9.0347,17.8625673 11.2897,20.1705673 C13.5417,22.4785673 14.6667,25.2315673 14.6667,28.4285673 C14.6667,31.6265673 13.5317,34.3885673 11.2607,36.7125673 L11.2607,36.7125673 Z M2.7317,2.37456733 L3.1667,2.37456733 C4.8377,2.37456733 6.2937,2.99256733 7.5287,4.22856733 C8.7647,5.46256733 9.3807,6.94456733 9.3807,8.67056733 C9.3807,10.3965673 8.7547,11.9225673 7.4997,13.2475673 C6.2467,14.5755673 4.8027,15.2365673 3.1667,15.2365673 L2.7317,15.2365673 L2.7317,2.37456733 Z M13.5767,20.1975673 C11.7257,17.9075673 9.3987,16.4185673 6.6017,15.7285673 C7.7997,15.2925673 8.8457,14.3585673 9.7357,12.9205673 C10.6247,11.4855673 11.0717,10.0775673 11.0717,8.69756733 C11.0717,6.40756733 10.2727,4.52656733 8.6737,3.05656733 C7.0737,1.58456733 5.0937,0.847567325 2.7317,0.847567325 L0.9877,0.847567325 L0.9877,41.7285673 L2.7317,41.7285673 C6.5117,41.7285673 9.7267,40.4465673 12.3797,37.8855673 C15.0317,35.3225673 16.3587,32.3085673 16.3587,28.8375673 C16.3587,25.3665673 15.4317,22.4865673 13.5767,20.1975673 L13.5767,20.1975673 Z" id="Fill-4"></path>
                    <path d="M48.54,29.1129673 C48.54,36.8309673 42.284,43.0869673 34.566,43.0869673 C26.85,43.0869673 20.593,36.8309673 20.593,29.1129673 C20.593,21.3959673 26.85,15.1399673 34.566,15.1399673 C42.284,15.1399673 48.54,21.3959673 48.54,29.1129673" id="Fill-5"></path>
                </g>
            </g>
        </g>
    </g>
</svg>