<?xml version="1.0" encoding="UTF-8"?>
<svg width="217px" height="59px" viewBox="0 0 217 59" version="1.1" xmlns="http://www.w3.org/2000/svg" xmlns:xlink="http://www.w3.org/1999/xlink">
    <title>Group 6</title>
    <defs>
        <polygon id="path-1" points="0 0.0001 217 0.0001 217 58.2359669 0 58.2359669"></polygon>
    </defs>
    <g id="Page-1" stroke="none" stroke-width="1" fill="none" fill-rule="evenodd">
        <g id="Infos-et-effets" transform="translate(-786.000000, -392.000000)">
            <g id="Group-6" transform="translate(786.000000, 392.000000)">
                <mask id="mask-2" fill="white">
                    <use xlink:href="#path-1"></use>
                </mask>
                <g id="Clip-1"></g>
                <g id="Group-14" mask="url(#mask-2)">
                    <g transform="translate(0.000000, -1.847767)">
                        <text id="DIGITAL" fill="none" font-family="BaconSans, Bacon Sans" font-size="8.9815" font-weight="normal" letter-spacing="0.6">
                            <tspan x="168.6514" y="58.0837343" fill="#181818">DIGITAL</tspan>
                        </text>
                        <text id="le----studio" fill="none" font-family="BaconSans, Bacon Sans" font-size="38.5715" font-weight="normal">
                            <tspan x="0" y="43" fill="#000000">le    studio</tspan>
                        </text>
                        <path d="M50.5,14.2477673 C51.755,12.9227673 52.381,11.3957673 52.381,9.67076733 C52.381,7.94476733 51.765,6.46276733 50.528,5.22776733 C49.294,3.99276733 47.838,3.37476733 46.167,3.37476733 L45.731,3.37476733 L45.731,16.2367673 L46.167,16.2367673 C47.803,16.2367673 49.247,15.5757673 50.5,14.2477673" id="Fill-2" fill="#DADB14" fill-rule="evenodd"></path>
                        <path d="M54.29,21.1705673 C52.035,18.8625673 49.329,17.7095673 46.167,17.7095673 L45.731,17.7095673 L45.731,41.2015673 L46.167,41.2015673 C49.294,41.2015673 51.991,40.0385673 54.261,37.7125673 C56.531,35.3885673 57.667,32.6265673 57.667,29.4285673 C57.667,26.2315673 56.542,23.4785673 54.29,21.1705673" id="Fill-3" fill="#DADB14" fill-rule="evenodd"></path>
                        <path d="M54.2607,37.7125673 C51.9907,40.0385673 49.2937,41.2015673 46.1667,41.2015673 L45.7317,41.2015673 L45.7317,17.7095673 L46.1667,17.7095673 C49.3287,17.7095673 52.0347,18.8625673 54.2897,21.1705673 C56.5417,23.4785673 57.6667,26.2315673 57.6667,29.4285673 C57.6667,32.6265673 56.5317,35.3885673 54.2607,37.7125673 L54.2607,37.7125673 Z M45.7317,3.37456733 L46.1667,3.37456733 C47.8377,3.37456733 49.2937,3.99256733 50.5287,5.22856733 C51.7647,6.46256733 52.3807,7.94456733 52.3807,9.67056733 C52.3807,11.3965673 51.7547,12.9225673 50.4997,14.2475673 C49.2467,15.5755673 47.8027,16.2365673 46.1667,16.2365673 L45.7317,16.2365673 L45.7317,3.37456733 Z M56.5767,21.1975673 C54.7257,18.9075673 52.3987,17.4185673 49.6017,16.7285673 C50.7997,16.2925673 51.8457,15.3585673 52.7357,13.9205673 C53.6247,12.4855673 54.0717,11.0775673 54.0717,9.69756733 C54.0717,7.40756733 53.2727,5.52656733 51.6737,4.05656733 C50.0737,2.58456733 48.0937,1.84756733 45.7317,1.84756733 L43.9877,1.84756733 L43.9877,42.7285673 L45.7317,42.7285673 C49.5117,42.7285673 52.7267,41.4465673 55.3797,38.8855673 C58.0317,36.3225673 59.3587,33.3085673 59.3587,29.8375673 C59.3587,26.3665673 58.4317,23.4865673 56.5767,21.1975673 L56.5767,21.1975673 Z" id="Fill-4" fill="#DADB14" fill-rule="evenodd"></path>
                        <path d="M91.54,30.1129673 C91.54,37.8309673 85.284,44.0869673 77.566,44.0869673 C69.85,44.0869673 63.593,37.8309673 63.593,30.1129673 C63.593,22.3959673 69.85,16.1399673 77.566,16.1399673 C85.284,16.1399673 91.54,22.3959673 91.54,30.1129673" id="Fill-5" fill="#DADB14" fill-rule="evenodd"></path>
                    </g>
                </g>
            </g>
        </g>
    </g>
</svg>