<?xml version="1.0" encoding="utf-8"?>
<svg width="97px" height="91px" viewBox="0 0 97 91" version="1.1" xmlns="http://www.w3.org/2000/svg" xmlns:xlink="http://www.w3.org/1999/xlink">
									<title>Group 3</title>
									<g id="Page-1" stroke="none" stroke-width="1" fill="none" fill-rule="evenodd">
										<g id="Infos-et-effets" transform="translate(-555.000000, -67.000000)" fill="#141414">
											<g id="Group-3" transform="translate(555.000000, 67.000000)">
												<text id="LeBostudio" font-family="Poppins-Bold, Poppins" font-size="18" font-weight="bold" letter-spacing="-0.4896">
													<tspan x="0.206" y="85">LeBostudio</tspan>
												</text>
												<path d="M49.3575414,0 L40,24 C45.4334112,24 48.8790106,23.974822 50.338574,23.9235669 C54.8158113,23.8219558 58.3635092,22.9173473 60.979892,21.2097415 C63.5944992,19.5030348 65.4313828,16.7649307 66.4878794,12.9936306 C67.4946585,9.37609592 67.0170155,6.31877108 65.0549504,3.82165605 C63.1417149,1.27418509 59.5949048,0 54.4136324,0 L49.3575414,0 Z M34.061546,52 L37.1914058,52 L40.6928871,52 C41.9330864,52 43.0505804,51.9747991 44.0444928,51.9234973 C46.3285629,51.7704918 48.4890514,51.4644809 50.5259582,51.0054645 C52.3139487,50.6490518 54.1510212,49.8840244 56.0389288,48.7103825 C58.5219567,47.1803279 60.3108237,44.5288332 61.4037767,40.7540984 C62.5449353,36.6742527 62.0479791,32.9508197 59.9129082,29.5846995 C57.8277957,26.1681774 54.1764387,24.3825137 48.9614665,24.2295082 L40.0215142,24 L30.1875667,48.6338798 C29.8396097,49.6032144 29.9754619,50.4060431 30.5977527,51.0432658 C31.2182906,51.6813886 32.3734726,52 34.061546,52 L34.061546,52 Z" id="Fill-37"></path>
											</g>
										</g>
									</g>
								</svg>