<?xml version="1.0" encoding="UTF-8"?>
<svg width="30px" height="27px" viewBox="0 0 30 27" version="1.1" xmlns="http://www.w3.org/2000/svg" xmlns:xlink="http://www.w3.org/1999/xlink">
    <title>Path</title>
    <g id="Symbols" stroke="none" stroke-width="1" fill="none" fill-rule="evenodd">
        <g id="nav-slider" transform="translate(-27.000000, -5.000000)" fill="#000000" fill-rule="nonzero" stroke="#000000">
            <g id="&lt;-&gt;" transform="translate(28.000000, 6.000000)">
                <path d="M27.7680387,11.9476531 L15.8930474,0.228900202 C15.5837781,-0.0763000675 15.0828019,-0.0763000675 14.7736069,0.228900202 C14.4643375,0.534100472 14.4643375,1.02848536 14.7736069,1.33361239 L25.2972241,11.7187712 L0.791690826,11.7187712 C0.354097397,11.7187712 0,12.0682097 0,12.5000458 C0,12.9318818 0.354097397,13.2813204 0.791690826,13.2813204 L25.2972241,13.2813204 L14.7736069,23.6664059 C14.4643375,23.9716062 14.4643375,24.4659911 14.7736069,24.7711181 C14.9282044,24.9236816 15.1308214,25 15.3333643,25 C15.5359071,25 15.7384499,24.9236816 15.8931217,24.7711181 L27.768113,13.0523652 C28.077308,12.7472382 28.077308,12.2528533 27.7680387,11.9476531 Z" id="Path" transform="translate(14.000000, 12.500000) scale(-1, 1) translate(-14.000000, -12.500000) "></path>
            </g>
        </g>
    </g>
</svg>