<?xml version="1.0" encoding="UTF-8"?>
<svg width="30px" height="27px" viewBox="0 0 30 27" version="1.1" xmlns="http://www.w3.org/2000/svg" xmlns:xlink="http://www.w3.org/1999/xlink">
    <title>Path</title>
    <g id="Symbols" stroke="none" stroke-width="1" fill="none" fill-rule="evenodd">
        <g id="nav-slider" transform="translate(-109.000000, -5.000000)" fill="#000000" fill-rule="nonzero" stroke="#000000">
            <g id="&lt;-&gt;" transform="translate(28.000000, 6.000000)">
                <path d="M109.768039,11.9476531 L97.8930474,0.228900202 C97.5837781,-0.0763000675 97.0828019,-0.0763000675 96.7736069,0.228900202 C96.4643375,0.534100472 96.4643375,1.02848536 96.7736069,1.33361239 L107.297224,11.7187712 L82.7916908,11.7187712 C82.3540974,11.7187712 82,12.0682097 82,12.5000458 C82,12.9318818 82.3540974,13.2813204 82.7916908,13.2813204 L107.297224,13.2813204 L96.7736069,23.6664059 C96.4643375,23.9716062 96.4643375,24.4659911 96.7736069,24.7711181 C96.9282044,24.9236816 97.1308214,25 97.3333643,25 C97.5359071,25 97.7384499,24.9236816 97.8931217,24.7711181 L109.768113,13.0523652 C110.077308,12.7472382 110.077308,12.2528533 109.768039,11.9476531 Z" id="Path"></path>
            </g>
        </g>
    </g>
</svg>