<?xml version="1.0" encoding="UTF-8"?>
<svg width="512px" height="512px" viewBox="0 0 512 512" version="1.1" xmlns="http://www.w3.org/2000/svg" xmlns:xlink="http://www.w3.org/1999/xlink">
    <title>PAUSE</title>
    <g id="Page-1" stroke="none" stroke-width="1" fill="none" fill-rule="evenodd">
        <g id="Infos-et-effets" transform="translate(-392.000000, -2119.000000)" fill="#FFFFFF" fill-rule="nonzero">
            <g id="PAUSE" transform="translate(392.000000, 2119.000000)">
                <path d="M256,0 C114.833,0 0,114.844 0,256 C0,397.156 114.833,512 256,512 C397.167,512 512,397.156 512,256 C512,114.844 397.167,0 256,0 Z M256,490.667 C126.604,490.667 21.333,385.396 21.333,256 C21.333,126.604 126.604,21.333 256,21.333 C385.396,21.333 490.667,126.604 490.667,256 C490.667,385.396 385.396,490.667 256,490.667 Z" id="Shape"></path>
                <path d="M202.5,155 C196.701375,155 192,158.582 192,163 L192,355 C192,359.418 196.701375,363 202.5,363 C208.298625,363 213,359.418 213,355 L213,163 C213,158.582 208.298625,155 202.5,155 Z" id="Path"></path>
                <path d="M309.5,155 C303.701375,155 299,158.582 299,163 L299,355 C299,359.418 303.701375,363 309.5,363 C315.298625,363 320,359.418 320,355 L320,163 C320,158.582 315.298625,155 309.5,155 Z" id="Path"></path>
            </g>
        </g>
    </g>
</svg>