<?xml version="1.0" encoding="UTF-8"?>
<svg width="512px" height="512px" viewBox="0 0 512 512" version="1.1" xmlns="http://www.w3.org/2000/svg" xmlns:xlink="http://www.w3.org/1999/xlink">
    <title>PLAY</title>
    <g id="Page-1" stroke="none" stroke-width="1" fill="none" fill-rule="evenodd">
        <g id="Infos-et-effets" transform="translate(-382.000000, -1534.000000)" fill="#FFFFFF" fill-rule="nonzero">
            <g id="PLAY" transform="translate(382.000000, 1534.000000)">
                <path d="M256,0 C114.833,0 0,114.844 0,256 C0,397.156 114.833,512 256,512 C397.167,512 512,397.156 512,256 C512,114.844 397.167,0 256,0 Z M256,490.667 C126.604,490.667 21.333,385.396 21.333,256 C21.333,126.604 126.604,21.333 256,21.333 C385.396,21.333 490.667,126.604 490.667,256 C490.667,385.396 385.396,490.667 256,490.667 Z" id="Shape"></path>
                <path d="M357.771,247.031 L208.438,151.031 C205.167,148.896 200.938,148.781 197.563,150.635 C194.125,152.51 192,156.094 192,160 L192,352 C192,355.906 194.125,359.49 197.563,361.365 C199.146,362.23 200.917,362.667 202.667,362.667 C204.667,362.667 206.688,362.104 208.438,360.969 L357.771,264.969 C360.813,263.011 362.667,259.625 362.667,256 C362.667,252.375 360.813,248.99 357.771,247.031 Z M213.333,332.458 L213.333,179.542 L332.271,256 L213.333,332.458 Z" id="Shape"></path>
            </g>
        </g>
    </g>
</svg>